<svg width="36" height="39" viewBox="0 0 36 39" fill="none" xmlns="http://www.w3.org/2000/svg">
<path d="M6.58346 0L2.38908 9.98842L13.0255 11.2845L11.7396 9.02809L10.6338 7.09183C13.5851 5.46256 16.9817 4.85417 20.3062 5.35933C23.6308 5.86449 26.701 7.45552 29.0493 9.89005C31.3977 12.3246 32.8953 15.4692 33.3141 18.8448C33.7329 22.2204 33.0499 25.6421 31.3692 28.5885C29.6719 31.5672 27.0503 33.8955 23.9114 35.2117C20.7726 36.528 17.2921 36.7586 14.0104 35.8677C10.7278 34.9795 7.8269 33.0191 5.75842 30.2909C3.68994 27.5628 2.56968 24.2197 2.57166 20.781H0C0.00257314 24.7915 1.31165 28.6892 3.72453 31.8706C6.1374 35.052 9.51945 37.3396 13.3469 38.3792C21.2085 40.5106 29.5227 37.0259 33.5911 29.8898C35.5707 26.416 36.3632 22.3786 35.8457 18.4029C35.3283 14.4272 33.5298 10.7351 30.7288 7.89861C27.9282 5.06345 24.2801 3.24452 20.3521 2.72482C16.5542 2.22588 12.6981 2.96715 9.34543 4.84066L6.58603 0H6.58346ZM18.0016 12.9735V20.7914H10.2867V23.3939H20.5733V12.9735H18.0016Z" fill="#3ED5DD"/>
</svg>
