<svg width="185" height="63" viewBox="0 0 185 63" fill="none" xmlns="http://www.w3.org/2000/svg">
<path d="M10.742 27.418C6.942 27.418 4.358 26.3667 2.99 24.264C1.64733 22.1613 0.976 18.7033 0.976 13.89C0.976 9.07667 1.66 5.65667 3.028 3.63C4.396 1.578 6.96733 0.551998 10.742 0.551998C12.9967 0.551998 15.4793 0.868666 18.19 1.502L18.038 4.922C15.758 4.51667 13.478 4.314 11.198 4.314C8.918 4.314 7.37267 4.998 6.562 6.366C5.75133 7.70867 5.346 10.2547 5.346 14.004C5.346 17.728 5.73867 20.274 6.524 21.642C7.30933 22.9847 8.842 23.656 11.122 23.656C13.402 23.656 15.7073 23.466 18.038 23.086L18.152 26.582C15.5427 27.1393 13.0727 27.418 10.742 27.418ZM20.0959 8H24.1619L28.1899 23.466H29.2159L33.2439 8H37.3479L30.1279 35.17H26.0619L28.3419 27H25.0739L20.0959 8ZM49.4011 7.582C52.0104 7.582 53.8851 8.31667 55.0251 9.786C56.1904 11.23 56.7731 13.8013 56.7731 17.5C56.7731 21.1987 56.0891 23.7827 54.7211 25.252C53.3531 26.696 50.9464 27.418 47.5011 27.418C46.3104 27.418 44.4231 27.304 41.8391 27.076L40.5471 26.962V0.0959998H44.6511V8.722C46.3991 7.962 47.9824 7.582 49.4011 7.582ZM47.5011 23.732C49.5277 23.732 50.8704 23.2633 51.5291 22.326C52.2131 21.3633 52.5551 19.742 52.5551 17.462C52.5551 15.182 52.2637 13.586 51.6811 12.674C51.1237 11.7367 50.1991 11.268 48.9071 11.268C47.6911 11.268 46.4751 11.458 45.2591 11.838L44.6511 12.028V23.58C46.0444 23.6813 46.9944 23.732 47.5011 23.732ZM74.4481 23.58L75.5121 23.466L75.5881 26.544C72.7001 27.1267 70.1414 27.418 67.9121 27.418C65.1001 27.418 63.0734 26.6453 61.8321 25.1C60.6161 23.5547 60.0081 21.0847 60.0081 17.69C60.0081 10.9513 62.7568 7.582 68.2541 7.582C73.5741 7.582 76.2341 10.4827 76.2341 16.284L75.9681 19.248H64.1881C64.2134 20.8187 64.5554 21.9713 65.2141 22.706C65.8728 23.4407 67.1014 23.808 68.9001 23.808C70.6988 23.808 72.5481 23.732 74.4481 23.58ZM72.1681 16.056C72.1681 14.1813 71.8641 12.8767 71.2561 12.142C70.6734 11.382 69.6728 11.002 68.2541 11.002C66.8354 11.002 65.7968 11.3947 65.1381 12.18C64.5048 12.9653 64.1754 14.2573 64.1501 16.056H72.1681ZM80.217 27V8H84.321V10.28C86.4743 8.88667 88.6277 7.98733 90.781 7.582V11.724C88.6023 12.1547 86.7403 12.712 85.195 13.396L84.359 13.738V27H80.217ZM2.564 51.17V57H0.87V41.776H6.502C8.11533 41.776 9.32533 42.15 10.132 42.898C10.9533 43.646 11.364 44.812 11.364 46.396C11.364 48.7427 10.4327 50.2167 8.57 50.818L11.496 57H9.626L6.876 51.17H2.564ZM6.524 49.674C8.592 49.674 9.626 48.6107 9.626 46.484C9.626 44.3427 8.58467 43.272 6.502 43.272H2.564V49.674H6.524ZM23.6273 55.636L24.2653 55.57L24.3093 56.868C22.6373 57.1027 21.2073 57.22 20.0193 57.22C18.4353 57.22 17.3133 56.7653 16.6533 55.856C15.9933 54.932 15.6633 53.502 15.6633 51.566C15.6633 47.7087 17.1959 45.78 20.2613 45.78C21.7426 45.78 22.8499 46.198 23.5833 47.034C24.3166 47.8553 24.6833 49.1533 24.6833 50.928L24.5953 52.182H17.3353C17.3353 53.3993 17.5553 54.3013 17.9953 54.888C18.4353 55.4747 19.1979 55.768 20.2833 55.768C21.3833 55.768 22.4979 55.724 23.6273 55.636ZM23.0333 50.862C23.0333 49.5127 22.8133 48.5593 22.3733 48.002C21.9479 47.4447 21.2439 47.166 20.2613 47.166C19.2933 47.166 18.5599 47.4593 18.0613 48.046C17.5773 48.6327 17.3279 49.5713 17.3133 50.862H23.0333ZM29.4547 61.884V46H31.0827V46.792C32.1974 46.1173 33.2974 45.78 34.3827 45.78C35.776 45.78 36.788 46.2273 37.4187 47.122C38.0494 48.002 38.3647 49.4613 38.3647 51.5C38.3647 53.5387 37.9907 55.0053 37.2427 55.9C36.5094 56.78 35.2847 57.22 33.5687 57.22C32.674 57.22 31.8527 57.1393 31.1047 56.978V61.884H29.4547ZM34.1407 47.254C33.7007 47.254 33.224 47.3273 32.7107 47.474C32.212 47.6207 31.816 47.7673 31.5227 47.914L31.1047 48.134V55.548C32.146 55.7093 32.938 55.79 33.4807 55.79C34.6687 55.79 35.4974 55.4527 35.9667 54.778C36.4507 54.1033 36.6927 53.0033 36.6927 51.478C36.6927 49.9527 36.4727 48.8673 36.0327 48.222C35.6074 47.5767 34.9767 47.254 34.1407 47.254ZM42.7723 51.478C42.7723 49.4687 43.1316 48.0167 43.8503 47.122C44.5689 46.2273 45.7789 45.78 47.4803 45.78C49.1963 45.78 50.4063 46.2273 51.1103 47.122C51.8289 48.0167 52.1883 49.4687 52.1883 51.478C52.1883 53.4873 51.8509 54.9467 51.1763 55.856C50.5016 56.7653 49.2696 57.22 47.4803 57.22C45.6909 57.22 44.4589 56.7653 43.7843 55.856C43.1096 54.9467 42.7723 53.4873 42.7723 51.478ZM44.4663 51.456C44.4663 53.0547 44.6569 54.1767 45.0383 54.822C45.4343 55.4673 46.2483 55.79 47.4803 55.79C48.7269 55.79 49.5409 55.4747 49.9223 54.844C50.3036 54.1987 50.4943 53.0693 50.4943 51.456C50.4943 49.8427 50.2816 48.7353 49.8563 48.134C49.4309 47.518 48.6389 47.21 47.4803 47.21C46.3363 47.21 45.5443 47.518 45.1043 48.134C44.6789 48.7353 44.4663 49.8427 44.4663 51.456ZM57.0793 57V46H58.7073V47.496C59.9833 46.616 61.3253 46.0367 62.7333 45.758V47.43C62.1173 47.5473 61.472 47.7307 60.7973 47.98C60.1373 48.2293 59.6313 48.4493 59.2793 48.64L58.7293 48.926V57H57.0793ZM72.5828 47.43H69.0848V52.688C69.0848 53.9493 69.1728 54.778 69.3488 55.174C69.5394 55.57 69.9794 55.768 70.6688 55.768L72.6268 55.636L72.7368 57C71.7541 57.1613 71.0061 57.242 70.4928 57.242C69.3488 57.242 68.5568 56.9633 68.1168 56.406C67.6768 55.8487 67.4568 54.7853 67.4568 53.216V47.43H65.8948V46H67.4568V42.634H69.0848V46H72.5828V47.43ZM76.7977 57V46H78.4477V57H76.7977ZM76.7977 43.514V41.6H78.4477V43.514H76.7977ZM85.4602 57H83.8102V46H85.4382V46.77C86.6262 46.11 87.7628 45.78 88.8482 45.78C90.3148 45.78 91.2975 46.176 91.7962 46.968C92.3095 47.76 92.5662 49.168 92.5662 51.192V57H90.9382V51.236C90.9382 49.7107 90.7842 48.6693 90.4762 48.112C90.1828 47.54 89.5448 47.254 88.5622 47.254C88.0928 47.254 87.5942 47.3273 87.0662 47.474C86.5528 47.606 86.1568 47.738 85.8782 47.87L85.4602 48.068V57ZM102.073 62.17C100.313 62.17 99.0806 61.928 98.3766 61.444C97.6872 60.9747 97.3426 60.1093 97.3426 58.848C97.3426 58.2467 97.4746 57.7553 97.7386 57.374C98.0026 57.0073 98.4499 56.5893 99.0806 56.12C98.6699 55.8413 98.4646 55.3353 98.4646 54.602C98.4646 54.3527 98.6479 53.8907 99.0146 53.216L99.2126 52.864C98.0539 52.336 97.4746 51.2287 97.4746 49.542C97.4746 47.034 98.8459 45.78 101.589 45.78C102.293 45.78 102.945 45.8533 103.547 46L103.877 46.066L107.133 45.978V47.386L105.043 47.342C105.527 47.826 105.769 48.5593 105.769 49.542C105.769 50.9207 105.424 51.8887 104.735 52.446C104.06 52.9887 102.989 53.26 101.523 53.26C101.127 53.26 100.767 53.2307 100.445 53.172C100.181 53.8173 100.049 54.2353 100.049 54.426C100.049 54.8807 100.188 55.1667 100.467 55.284C100.745 55.3867 101.589 55.438 102.997 55.438C104.405 55.438 105.417 55.658 106.033 56.098C106.649 56.538 106.957 57.396 106.957 58.672C106.957 61.004 105.329 62.17 102.073 62.17ZM98.9706 58.716C98.9706 59.4933 99.1832 60.0287 99.6086 60.322C100.049 60.63 100.848 60.784 102.007 60.784C103.18 60.784 104.016 60.6227 104.515 60.3C105.028 59.9773 105.285 59.4347 105.285 58.672C105.285 57.924 105.101 57.44 104.735 57.22C104.368 57 103.649 56.89 102.579 56.89L100.203 56.78C99.7186 57.132 99.3886 57.44 99.2126 57.704C99.0512 57.968 98.9706 58.3053 98.9706 58.716ZM99.1246 49.542C99.1246 50.4073 99.3152 51.0233 99.6966 51.39C100.093 51.7567 100.738 51.94 101.633 51.94C102.527 51.94 103.165 51.7567 103.547 51.39C103.928 51.0233 104.119 50.4073 104.119 49.542C104.119 48.662 103.928 48.0387 103.547 47.672C103.165 47.3053 102.527 47.122 101.633 47.122C100.738 47.122 100.093 47.3127 99.6966 47.694C99.3152 48.0607 99.1246 48.6767 99.1246 49.542ZM124.213 51.874H120.341V57H118.647V41.776H124.213C125.871 41.776 127.095 42.1793 127.887 42.986C128.679 43.7927 129.075 45.0247 129.075 46.682C129.075 50.1433 127.455 51.874 124.213 51.874ZM120.341 50.378H124.191C126.289 50.378 127.337 49.146 127.337 46.682C127.337 45.5087 127.088 44.6507 126.589 44.108C126.091 43.5507 125.291 43.272 124.191 43.272H120.341V50.378ZM133.032 51.478C133.032 49.4687 133.392 48.0167 134.11 47.122C134.829 46.2273 136.039 45.78 137.74 45.78C139.456 45.78 140.666 46.2273 141.37 47.122C142.089 48.0167 142.448 49.4687 142.448 51.478C142.448 53.4873 142.111 54.9467 141.436 55.856C140.762 56.7653 139.53 57.22 137.74 57.22C135.951 57.22 134.719 56.7653 134.044 55.856C133.37 54.9467 133.032 53.4873 133.032 51.478ZM134.726 51.456C134.726 53.0547 134.917 54.1767 135.298 54.822C135.694 55.4673 136.508 55.79 137.74 55.79C138.987 55.79 139.801 55.4747 140.182 54.844C140.564 54.1987 140.754 53.0693 140.754 51.456C140.754 49.8427 140.542 48.7353 140.116 48.134C139.691 47.518 138.899 47.21 137.74 47.21C136.596 47.21 135.804 47.518 135.364 48.134C134.939 48.7353 134.726 49.8427 134.726 51.456ZM147.339 57V46H148.967V47.496C150.243 46.616 151.585 46.0367 152.993 45.758V47.43C152.377 47.5473 151.732 47.7307 151.057 47.98C150.397 48.2293 149.891 48.4493 149.539 48.64L148.989 48.926V57H147.339ZM162.843 47.43H159.345V52.688C159.345 53.9493 159.433 54.778 159.609 55.174C159.8 55.57 160.24 55.768 160.929 55.768L162.887 55.636L162.997 57C162.014 57.1613 161.266 57.242 160.753 57.242C159.609 57.242 158.817 56.9633 158.377 56.406C157.937 55.8487 157.717 54.7853 157.717 53.216V47.43H156.155V46H157.717V42.634H159.345V46H162.843V47.43ZM174.824 49.322V54.954C174.868 55.4967 175.293 55.8193 176.1 55.922L176.034 57.22C174.875 57.22 174.002 56.9267 173.416 56.34C172.096 56.9267 170.776 57.22 169.456 57.22C168.444 57.22 167.674 56.934 167.146 56.362C166.618 55.79 166.354 54.9687 166.354 53.898C166.354 52.8273 166.625 52.0427 167.168 51.544C167.71 51.0307 168.561 50.7153 169.72 50.598L173.174 50.268V49.322C173.174 48.574 173.012 48.0387 172.69 47.716C172.367 47.3933 171.927 47.232 171.37 47.232C170.196 47.232 168.979 47.3053 167.718 47.452L167.036 47.518L166.97 46.264C168.583 45.9413 170.013 45.78 171.26 45.78C172.506 45.78 173.408 46.066 173.966 46.638C174.538 47.21 174.824 48.1047 174.824 49.322ZM168.048 53.81C168.048 55.1593 168.605 55.834 169.72 55.834C170.717 55.834 171.7 55.6653 172.668 55.328L173.174 55.152V51.522L169.918 51.83C169.258 51.8887 168.781 52.0793 168.488 52.402C168.194 52.7247 168.048 53.194 168.048 53.81ZM180.411 57V41.204H182.061V57H180.411Z" fill="white"/>
<path d="M103.181 27.418C99.3815 27.418 96.7975 26.3667 95.4295 24.264C94.0868 22.1613 93.4155 18.7033 93.4155 13.89C93.4155 9.07667 94.0995 5.65667 95.4675 3.63C96.8355 1.578 99.4068 0.551998 103.181 0.551998C105.436 0.551998 107.919 0.868666 110.629 1.502L110.477 4.922C108.197 4.51667 105.917 4.314 103.637 4.314C101.357 4.314 99.8121 4.998 99.0015 6.366C98.1908 7.70867 97.7855 10.2547 97.7855 14.004C97.7855 17.728 98.1781 20.274 98.9635 21.642C99.7488 22.9847 101.281 23.656 103.561 23.656C105.841 23.656 108.147 23.466 110.477 23.086L110.591 26.582C107.982 27.1393 105.512 27.418 103.181 27.418ZM114.617 27V8H118.721V10.28C120.875 8.88667 123.028 7.98733 125.181 7.582V11.724C123.003 12.1547 121.141 12.712 119.595 13.396L118.759 13.738V27H114.617ZM128.348 27V8H132.49V27H128.348ZM128.348 4.77V0.399998H132.49V4.77H128.348ZM141.656 27H137.514V8H141.618V9.178C143.417 8.114 145.063 7.582 146.558 7.582C148.762 7.582 150.371 8.20267 151.384 9.444C153.689 8.20267 155.982 7.582 158.262 7.582C160.542 7.582 162.151 8.29133 163.088 9.71C164.025 11.1033 164.494 13.472 164.494 16.816V27H160.39V16.93C160.39 14.878 160.175 13.4213 159.744 12.56C159.339 11.6987 158.477 11.268 157.16 11.268C156.02 11.268 154.791 11.5213 153.474 12.028L152.828 12.294C153.031 12.8007 153.132 14.422 153.132 17.158V27H149.028V17.234C149.028 14.9793 148.825 13.4213 148.42 12.56C148.015 11.6987 147.128 11.268 145.76 11.268C144.493 11.268 143.315 11.5213 142.226 12.028L141.656 12.256V27ZM182.882 23.58L183.946 23.466L184.022 26.544C181.134 27.1267 178.575 27.418 176.346 27.418C173.534 27.418 171.507 26.6453 170.266 25.1C169.05 23.5547 168.442 21.0847 168.442 17.69C168.442 10.9513 171.19 7.582 176.688 7.582C182.008 7.582 184.668 10.4827 184.668 16.284L184.402 19.248H172.622C172.647 20.8187 172.989 21.9713 173.648 22.706C174.306 23.4407 175.535 23.808 177.334 23.808C179.132 23.808 180.982 23.732 182.882 23.58ZM180.602 16.056C180.602 14.1813 180.298 12.8767 179.69 12.142C179.107 11.382 178.106 11.002 176.688 11.002C175.269 11.002 174.23 11.3947 173.572 12.18C172.938 12.9653 172.609 14.2573 172.584 16.056H180.602Z" fill="#3ED5DD"/>
</svg>
